# Blender v2.82 (sub 7) OBJ File: ''
# www.blender.org
mtllib ElavatorLift.mtl
o Plane.003_Plane.002_Plane.003_Plane.007
v -1.943467 -0.000044 137.039566
v -1.935751 -0.000044 137.118774
v -1.530152 -0.000044 137.524368
v -1.450948 -0.000044 137.532089
v -1.916820 -0.000044 137.214966
v -1.886889 -0.000044 137.287445
v -1.833779 -0.000044 137.366928
v -1.778323 -0.000044 137.422379
v -1.698835 -0.000044 137.475494
v -1.626370 -0.000044 137.505417
v -1.450948 -0.000044 133.650833
v -1.530153 -0.000044 133.658554
v -1.935750 -0.000044 134.064148
v -1.943467 -0.000044 134.143356
v -1.626371 -0.000044 133.677505
v -1.698839 -0.000044 133.707428
v -1.778326 -0.000044 133.760544
v -1.833776 -0.000044 133.815994
v -1.886886 -0.000044 133.895477
v -1.916819 -0.000044 133.967957
v 1.445262 -0.000044 137.532089
v 1.524467 -0.000044 137.524368
v 1.930064 -0.000044 137.118774
v 1.937781 -0.000044 137.039566
v 1.620685 -0.000044 137.505417
v 1.693153 -0.000044 137.475494
v 1.772640 -0.000044 137.422379
v 1.828090 -0.000044 137.366928
v 1.881200 -0.000044 137.287445
v 1.911133 -0.000044 137.214966
v 1.937781 -0.000044 134.143356
v 1.930065 -0.000044 134.064148
v 1.524466 -0.000044 133.658554
v 1.445262 -0.000044 133.650833
v 1.911134 -0.000044 133.967957
v 1.881203 -0.000044 133.895477
v 1.828093 -0.000044 133.815994
v 1.772637 -0.000044 133.760544
v 1.693149 -0.000044 133.707428
v 1.620684 -0.000044 133.677505
v -1.450948 0.085953 137.532089
v -1.530153 0.085953 137.524368
v -1.935750 0.085953 137.118774
v -1.943467 0.085953 137.039566
v -1.626371 0.085953 137.505417
v -1.698839 0.085953 137.475494
v -1.778326 0.085953 137.422379
v -1.833776 0.085953 137.366928
v -1.886886 0.085953 137.287445
v -1.916819 0.085953 137.214966
v -1.943467 0.085953 134.143356
v -1.935751 0.085953 134.064148
v -1.530152 0.085953 133.658554
v -1.450948 0.085953 133.650833
v -1.916820 0.085953 133.967957
v -1.886889 0.085953 133.895477
v -1.833779 0.085953 133.815994
v -1.778323 0.085953 133.760544
v -1.698835 0.085953 133.707428
v -1.626370 0.085953 133.677505
v 1.937781 0.085953 137.039566
v 1.930065 0.085953 137.118774
v 1.524466 0.085953 137.524368
v 1.445262 0.085953 137.532089
v 1.911134 0.085953 137.214966
v 1.881203 0.085953 137.287445
v 1.828093 0.085953 137.366928
v 1.772637 0.085953 137.422379
v 1.693149 0.085953 137.475494
v 1.620684 0.085953 137.505417
v 1.445262 0.085953 133.650833
v 1.524467 0.085953 133.658554
v 1.930064 0.085953 134.064148
v 1.937781 0.085953 134.143356
v 1.620685 0.085953 133.677505
v 1.693153 0.085953 133.707428
v 1.772640 0.085953 133.760544
v 1.828090 0.085953 133.815994
v 1.881200 0.085953 133.895477
v 1.911133 0.085953 133.967957
v 1.696775 0.085953 137.448883
v 1.596047 0.085953 137.465683
v 1.513131 0.085953 137.472519
v -1.518819 0.085953 137.472519
v -1.601735 0.085953 137.465668
v -1.702462 0.085953 137.448883
v 1.749861 0.085953 137.389282
v 1.645988 0.085953 137.403458
v 1.560481 0.085953 137.409225
v -1.566163 0.085953 137.409225
v -1.651669 0.085953 137.403442
v -1.755543 0.085953 137.389297
v 1.800703 0.085953 137.305344
v 1.693816 0.085953 137.316681
v 1.605830 0.085953 137.321304
v -1.611510 0.085953 137.321304
v -1.699497 0.085953 137.316681
v -1.806384 0.085953 137.305344
v 1.829354 0.085953 137.227966
v 1.720769 0.085953 137.236191
v 1.631385 0.085953 137.239532
v -1.637068 0.085953 137.239532
v -1.726453 0.085953 137.236176
v -1.835038 0.085953 137.227951
v 1.847476 0.085953 137.126633
v 1.737817 0.085953 137.131622
v 1.647549 0.085953 137.133652
v -1.653233 0.085953 137.133652
v -1.743501 0.085953 137.131622
v -1.853160 0.085953 137.126633
v 1.854862 0.085953 137.042191
v 1.744766 0.085953 137.043884
v 1.654137 0.085953 137.044556
v -1.659822 0.085953 137.044556
v -1.750451 0.085953 137.043869
v -1.860548 0.085953 137.042206
v 1.854862 0.085953 134.140717
v 1.744765 0.085953 134.139053
v 1.654137 0.085953 134.138382
v -1.659823 0.085953 134.138367
v -1.750452 0.085953 134.139038
v -1.860548 0.085953 134.140717
v 1.847474 0.085953 134.056274
v 1.737815 0.085953 134.051300
v 1.647547 0.085953 134.049255
v -1.653235 0.085953 134.049255
v -1.743503 0.085953 134.051300
v -1.853162 0.085953 134.056274
v 1.829352 0.085953 133.954971
v 1.720767 0.085953 133.946747
v 1.631382 0.085953 133.943390
v -1.637071 0.085953 133.943390
v -1.726455 0.085953 133.946747
v -1.835040 0.085953 133.954956
v 1.800698 0.085953 133.877579
v 1.693811 0.085953 133.866241
v 1.605824 0.085953 133.861633
v -1.611516 0.085953 133.861618
v -1.699502 0.085953 133.866241
v -1.806389 0.085953 133.877579
v 1.749856 0.085953 133.793640
v 1.645983 0.085953 133.779465
v 1.560477 0.085953 133.773697
v -1.566167 0.085953 133.773682
v -1.651674 0.085953 133.779465
v -1.755547 0.085953 133.793640
v 1.696777 0.085953 133.734039
v 1.596049 0.085953 133.717239
v 1.513133 0.085953 133.710403
v -1.518817 0.085953 133.710403
v -1.601733 0.085953 133.717255
v -1.702461 0.085953 133.734055
vt 0.331371 0.822301
vt 0.335388 0.814966
vt 0.329650 0.812391
vt 0.325403 0.818649
vt 0.106741 0.546917
vt 0.108613 0.552424
vt 0.289504 0.560182
vt 0.291836 0.554580
vt 0.289950 0.855469
vt 0.288264 0.850419
vt 0.118984 0.847140
vt 0.117001 0.852396
vt 0.069729 0.804697
vt 0.075291 0.802642
vt 0.063696 0.600357
vt 0.057668 0.598514
vt 0.321141 0.835136
vt 0.327199 0.828195
vt 0.321327 0.823880
vt 0.315720 0.830286
vt 0.294671 0.562354
vt 0.301192 0.567255
vt 0.305333 0.561095
vt 0.297567 0.556585
vt 0.308703 0.846312
vt 0.315687 0.840478
vt 0.310680 0.835244
vt 0.304235 0.840696
vt 0.295342 0.853949
vt 0.302759 0.850256
vt 0.299079 0.844643
vt 0.293043 0.848735
vt 0.328376 0.596560
vt 0.332513 0.603188
vt 0.338353 0.600784
vt 0.334598 0.592775
vt 0.318605 0.583770
vt 0.324304 0.590881
vt 0.330523 0.586275
vt 0.324443 0.578548
vt 0.104291 0.846816
vt 0.111610 0.850709
vt 0.114102 0.845273
vt 0.107902 0.840957
vt 0.306667 0.571881
vt 0.313404 0.578167
vt 0.318848 0.572496
vt 0.311550 0.565753
vt 0.073337 0.570063
vt 0.067202 0.577845
vt 0.073698 0.582162
vt 0.079409 0.575043
vt 0.086391 0.557382
vt 0.078995 0.564030
vt 0.084646 0.569498
vt 0.091456 0.563359
vt 0.100893 0.548608
vt 0.092788 0.552866
vt 0.096958 0.558904
vt 0.103472 0.554272
vt 0.091358 0.836745
vt 0.098374 0.842727
vt 0.102680 0.836853
vt 0.096236 0.831248
vt 0.063070 0.584368
vt 0.059234 0.592377
vt 0.065409 0.594760
vt 0.069599 0.587928
vt 0.079841 0.824236
vt 0.085893 0.831292
vt 0.091200 0.826164
vt 0.085599 0.819607
vt 0.071691 0.810612
vt 0.075683 0.818193
vt 0.081541 0.814294
vt 0.077332 0.807989
vt 0.331586 0.807132
vt 0.337234 0.809213
vt 0.340015 0.606877
vt 0.334327 0.608665
vt 0.110746 0.829003
vt 0.111270 0.817180
vt 0.109650 0.806097
vt 0.108027 0.795999
vt 0.106124 0.784819
vt 0.104986 0.774250
vt 0.098034 0.629028
vt 0.098462 0.618244
vt 0.099840 0.606646
vt 0.100991 0.596052
vt 0.102108 0.584272
vt 0.100862 0.571720
vt 0.122315 0.830140
vt 0.126764 0.815198
vt 0.128386 0.801636
vt 0.128957 0.789221
vt 0.128723 0.776047
vt 0.128350 0.763282
vt 0.123685 0.640194
vt 0.123255 0.627200
vt 0.122811 0.613579
vt 0.121541 0.600614
vt 0.119109 0.586285
vt 0.113541 0.570453
vt 0.132235 0.831021
vt 0.140165 0.814958
vt 0.144562 0.800405
vt 0.147067 0.787036
vt 0.148268 0.773030
vt 0.148585 0.759369
vt 0.145322 0.644688
vt 0.144190 0.630778
vt 0.142248 0.616284
vt 0.138923 0.602303
vt 0.133529 0.586898
vt 0.124222 0.569796
vt 0.274238 0.833797
vt 0.265973 0.817616
vt 0.261306 0.803038
vt 0.258553 0.789707
vt 0.257108 0.775796
vt 0.256454 0.762270
vt 0.254723 0.648041
vt 0.255538 0.634367
vt 0.257284 0.620185
vt 0.260417 0.606637
vt 0.265613 0.591861
vt 0.274690 0.575734
vt 0.284176 0.833227
vt 0.279422 0.818263
vt 0.277560 0.804742
vt 0.276768 0.792418
vt 0.276785 0.779393
vt 0.276841 0.766791
vt 0.276116 0.644773
vt 0.276249 0.631985
vt 0.276524 0.618609
vt 0.277625 0.605976
vt 0.279884 0.592126
vt 0.285245 0.577037
vt 0.295867 0.832393
vt 0.295106 0.820619
vt 0.296553 0.809626
vt 0.298022 0.799657
vt 0.299774 0.788669
vt 0.300646 0.778276
vt 0.301154 0.635017
vt 0.300478 0.624380
vt 0.298996 0.612925
vt 0.297736 0.602523
vt 0.296504 0.591027
vt 0.297592 0.578915
vn -0.9574 0.0000 0.2888
vn -0.9894 0.0000 0.1452
vn 0.0485 -0.0000 -0.9988
vn -0.0486 0.0000 -0.9988
vn -0.0485 -0.0000 0.9988
vn 0.0486 0.0000 0.9988
vn 0.9988 -0.0000 0.0485
vn 0.9988 0.0000 -0.0485
vn -0.7730 0.0000 0.6344
vn -0.8822 0.0000 0.4709
vn -0.1454 0.0000 -0.9894
vn -0.2889 0.0000 -0.9574
vn -0.4709 -0.0000 0.8822
vn -0.6344 -0.0000 0.7730
vn -0.1453 -0.0000 0.9894
vn -0.2888 -0.0000 0.9574
vn -0.9574 -0.0000 -0.2888
vn -0.9894 -0.0000 -0.1452
vn -0.7730 -0.0000 -0.6344
vn -0.8822 -0.0000 -0.4709
vn 0.2888 0.0000 0.9574
vn 0.1453 0.0000 0.9894
vn -0.4709 0.0000 -0.8822
vn -0.6344 0.0000 -0.7730
vn 0.7730 0.0000 -0.6344
vn 0.8822 0.0000 -0.4710
vn 0.8822 0.0000 -0.4709
vn 0.4709 -0.0000 -0.8822
vn 0.6344 -0.0000 -0.7730
vn 0.1453 -0.0000 -0.9894
vn 0.2889 -0.0000 -0.9574
vn 0.6344 0.0000 0.7730
vn 0.4709 0.0000 0.8822
vn 0.9574 0.0000 -0.2889
vn 0.9894 0.0000 -0.1452
vn 0.8822 -0.0000 0.4709
vn 0.7730 -0.0000 0.6344
vn 0.9894 -0.0000 0.1452
vn 0.9574 -0.0000 0.2888
vn -0.9988 0.0000 0.0485
vn -0.9988 -0.0000 -0.0485
vn 0.0000 1.0000 0.0000
vn 0.0000 -1.0000 -0.0000
usemtl None.006
s 1
f 50/1/1 43/2/2 2/3/2 5/4/1
f 71/5/3 34/6/3 11/7/4 54/8/4
f 41/9/5 4/10/5 21/11/6 64/12/6
f 61/13/7 24/14/7 31/15/8 74/16/8
f 48/17/9 49/18/10 6/19/10 7/20/9
f 12/21/11 15/22/12 60/23/12 53/24/11
f 46/25/13 47/26/14 8/27/14 9/28/13
f 42/29/15 45/30/16 10/31/16 3/32/15
f 20/33/17 13/34/18 52/35/18 55/36/17
f 18/37/19 19/38/20 56/39/20 57/40/19
f 70/41/21 63/42/22 22/43/22 25/44/21
f 16/45/23 17/46/24 58/47/24 59/48/23
f 78/49/25 79/50/26 36/51/27 37/52/25
f 76/53/28 77/54/29 38/55/29 39/56/28
f 72/57/30 75/58/31 40/59/31 33/60/30
f 68/61/32 69/62/33 26/63/33 27/64/32
f 80/65/34 73/66/35 32/67/35 35/68/34
f 66/69/36 67/70/37 28/71/37 29/72/36
f 62/73/38 65/74/39 30/75/39 23/76/38
f 1/77/40 44/78/40 51/79/41 14/80/41
f 41/9/5 42/29/15 3/32/15 4/10/5
f 9/28/13 10/31/16 45/30/16 46/25/13
f 7/20/9 8/27/14 47/26/14 48/17/9
f 5/4/1 6/19/10 49/18/10 50/1/1
f 1/77/40 2/3/2 43/2/2 44/78/40
f 11/7/4 12/21/11 53/24/11 54/8/4
f 59/48/23 60/23/12 15/22/12 16/45/23
f 57/40/19 58/47/24 17/46/24 18/37/19
f 55/36/17 56/39/20 19/38/20 20/33/17
f 51/79/41 52/35/18 13/34/18 14/80/41
f 71/5/3 72/57/30 33/60/30 34/6/3
f 39/56/28 40/59/31 75/58/31 76/53/28
f 37/52/25 38/55/29 77/54/29 78/49/25
f 35/68/34 36/51/27 79/50/26 80/65/34
f 31/15/8 32/67/35 73/66/35 74/16/8
f 61/13/7 62/73/38 23/76/38 24/14/7
f 29/72/36 30/75/39 65/74/39 66/69/36
f 27/64/32 28/71/37 67/70/37 68/61/32
f 25/44/21 26/63/33 69/62/33 70/41/21
f 21/11/6 22/43/22 63/42/22 64/12/6
f 70/41/42 69/62/42 68/61/42 81/81/42
f 81/81/42 68/61/42 67/70/42 87/82/42
f 87/82/42 67/70/42 66/69/42 93/83/42
f 93/83/42 66/69/42 65/74/42 99/84/42
f 99/84/42 65/74/42 62/73/42 105/85/42
f 105/85/42 62/73/42 61/13/42 111/86/42
f 111/86/42 61/13/42 74/16/42 117/87/42
f 117/87/42 74/16/42 73/66/42 123/88/42
f 123/88/42 73/66/42 80/65/42 129/89/42
f 129/89/42 80/65/42 79/50/42 135/90/42
f 135/90/42 79/50/42 78/49/42 141/91/42
f 141/91/42 78/49/42 77/54/42 147/92/42
f 147/92/42 77/54/42 76/53/42 75/58/42
f 63/42/42 70/41/42 81/81/42 82/93/42
f 82/93/42 81/81/42 87/82/42 88/94/42
f 88/94/42 87/82/42 93/83/42 94/95/42
f 94/95/42 93/83/42 99/84/42 100/96/42
f 100/96/42 99/84/42 105/85/42 106/97/42
f 106/97/42 105/85/42 111/86/42 112/98/42
f 112/98/42 111/86/42 117/87/42 118/99/42
f 118/99/42 117/87/42 123/88/42 124/100/42
f 124/100/42 123/88/42 129/89/42 130/101/42
f 130/101/42 129/89/42 135/90/42 136/102/42
f 136/102/42 135/90/42 141/91/42 142/103/42
f 142/103/42 141/91/42 147/92/42 148/104/42
f 148/104/42 147/92/42 75/58/42 72/57/42
f 64/12/42 63/42/42 82/93/42 83/105/42
f 83/105/42 82/93/42 88/94/42 89/106/42
f 89/106/42 88/94/42 94/95/42 95/107/42
f 95/107/42 94/95/42 100/96/42 101/108/42
f 101/108/42 100/96/42 106/97/42 107/109/42
f 107/109/42 106/97/42 112/98/42 113/110/42
f 113/110/42 112/98/42 118/99/42 119/111/42
f 119/111/42 118/99/42 124/100/42 125/112/42
f 125/112/42 124/100/42 130/101/42 131/113/42
f 131/113/42 130/101/42 136/102/42 137/114/42
f 137/114/42 136/102/42 142/103/42 143/115/42
f 143/115/42 142/103/42 148/104/42 149/116/42
f 149/116/42 148/104/42 72/57/42 71/5/42
f 41/9/42 64/12/42 83/105/42 84/117/42
f 84/117/42 83/105/42 89/106/42 90/118/42
f 90/118/42 89/106/42 95/107/42 96/119/42
f 96/119/42 95/107/42 101/108/42 102/120/42
f 102/120/42 101/108/42 107/109/42 108/121/42
f 108/121/42 107/109/42 113/110/42 114/122/42
f 114/122/42 113/110/42 119/111/42 120/123/42
f 120/123/42 119/111/42 125/112/42 126/124/42
f 126/124/42 125/112/42 131/113/42 132/125/42
f 132/125/42 131/113/42 137/114/42 138/126/42
f 138/126/42 137/114/42 143/115/42 144/127/42
f 144/127/42 143/115/42 149/116/42 150/128/42
f 150/128/42 149/116/42 71/5/42 54/8/42
f 42/29/42 41/9/42 84/117/42 85/129/42
f 85/129/42 84/117/42 90/118/42 91/130/42
f 91/130/42 90/118/42 96/119/42 97/131/42
f 97/131/42 96/119/42 102/120/42 103/132/42
f 103/132/42 102/120/42 108/121/42 109/133/42
f 109/133/42 108/121/42 114/122/42 115/134/42
f 115/134/42 114/122/42 120/123/42 121/135/42
f 121/135/42 120/123/42 126/124/42 127/136/42
f 127/136/42 126/124/42 132/125/42 133/137/42
f 133/137/42 132/125/42 138/126/42 139/138/42
f 139/138/42 138/126/42 144/127/42 145/139/42
f 145/139/42 144/127/42 150/128/42 151/140/42
f 151/140/42 150/128/42 54/8/42 53/24/42
f 45/30/42 42/29/42 85/129/42 86/141/42
f 86/141/42 85/129/42 91/130/42 92/142/42
f 92/142/42 91/130/42 97/131/42 98/143/42
f 98/143/42 97/131/42 103/132/42 104/144/42
f 104/144/42 103/132/42 109/133/42 110/145/42
f 110/145/42 109/133/42 115/134/42 116/146/42
f 116/146/42 115/134/42 121/135/42 122/147/42
f 122/147/42 121/135/42 127/136/42 128/148/42
f 128/148/42 127/136/42 133/137/42 134/149/42
f 134/149/42 133/137/42 139/138/42 140/150/42
f 140/150/42 139/138/42 145/139/42 146/151/42
f 146/151/42 145/139/42 151/140/42 152/152/42
f 152/152/42 151/140/42 53/24/42 60/23/42
f 46/25/42 45/30/42 86/141/42 47/26/42
f 47/26/42 86/141/42 92/142/42 48/17/42
f 48/17/42 92/142/42 98/143/42 49/18/42
f 49/18/42 98/143/42 104/144/42 50/1/42
f 50/1/42 104/144/42 110/145/42 43/2/42
f 43/2/42 110/145/42 116/146/42 44/78/42
f 44/78/42 116/146/42 122/147/42 51/79/42
f 51/79/42 122/147/42 128/148/42 52/35/42
f 52/35/42 128/148/42 134/149/42 55/36/42
f 55/36/42 134/149/42 140/150/42 56/39/42
f 56/39/42 140/150/42 146/151/42 57/40/42
f 57/40/42 146/151/42 152/152/42 58/47/42
f 58/47/42 152/152/42 60/23/42 59/48/42
f 4/10/43 3/32/43 10/31/43 9/28/43 8/27/43 7/20/43 6/19/43 5/4/43 2/3/43 1/77/43 14/80/43 13/34/43 20/33/43 19/38/43 18/37/43 17/46/43 16/45/43 15/22/43 12/21/43 11/7/43 34/6/43 33/60/43 40/59/43 39/56/43 38/55/43 37/52/43 36/51/43 35/68/43 32/67/43 31/15/43 24/14/43 23/76/43 30/75/43 29/72/43 28/71/43 27/64/43 26/63/43 25/44/43 22/43/43 21/11/43
