# Blender v2.82 (sub 7) OBJ File: ''
# www.blender.org
mtllib StartingElavator.mtl
o Plane.004_Plane.001
v -1.968715 -18.818455 137.557327
v -0.002844 -18.818455 137.557327
v -0.002844 -18.818455 135.591461
v -1.968715 -18.818455 135.591461
v -1.968715 -18.818455 135.591461
v -0.002844 -18.818455 135.591461
v -0.002844 -18.818453 133.625595
v -1.968715 -18.818453 133.625595
v -0.002844 -18.818455 137.557327
v 1.963027 -18.818455 137.557327
v 1.963027 -18.818455 135.591461
v -0.002844 -18.818455 135.591461
v -0.002844 -18.818455 135.591461
v 1.963027 -18.818455 135.591461
v 1.963027 -18.818453 133.625595
v -0.002844 -18.818453 133.625595
v 1.963027 -0.000022 135.591461
v 1.963027 -0.000022 133.625595
v -1.968715 -0.000022 135.591461
v -1.968715 -0.000022 137.557327
v -0.002844 -0.000022 133.625595
v -0.002844 -0.000022 137.557327
v -0.002844 -0.000022 137.557327
v 1.963027 -0.000022 137.557327
v 1.963027 -0.000022 135.591461
v -1.968715 -0.000022 133.625595
v -1.968715 -0.000022 135.591461
v -0.002844 -0.000022 133.625595
vt 0.146686 0.539538
vt 0.087637 0.625729
vt 0.000185 0.537017
vt 0.088898 0.449565
vt 0.099833 0.411361
vt 0.000185 0.321944
vt 0.101499 0.233876
vt 0.146380 0.323910
vt 0.101499 0.019328
vt 0.146380 0.109363
vt 0.099833 0.196813
vt 0.000185 0.107396
vt 0.000185 0.752395
vt 0.088898 0.664943
vt 0.146686 0.754916
vt 0.087637 0.841107
vt 0.691790 0.824829
vt 0.605431 0.824829
vt 0.605431 -0.001849
vt 0.691790 -0.001849
vt 0.345889 0.826829
vt 0.259530 0.826829
vt 0.259530 0.000151
vt 0.345889 0.000151
vt 0.519072 0.824829
vt 0.519072 -0.001849
vt 0.173171 0.826829
vt 0.173171 0.000151
vt 0.172869 0.826829
vt 0.086510 0.826829
vt 0.086510 0.000151
vt 0.172869 0.000151
vt 0.000151 0.826829
vt 0.000151 0.000151
vt 0.432550 0.826829
vt 0.346191 0.826829
vt 0.346191 0.000151
vt 0.432550 0.000151
vt 0.518909 0.826829
vt 0.518909 0.000151
vn 0.0000 1.0000 0.0000
vn -1.0000 0.0000 0.0000
vn 1.0000 0.0000 0.0000
vn 0.0000 0.0000 1.0000
vn 0.0000 0.0000 -1.0000
usemtl None
s 1
f 1/1/1 2/2/1 3/3/1 4/4/1
f 5/5/1 6/6/1 7/7/1 8/8/1
f 9/9/1 10/10/1 11/11/1 12/12/1
f 13/13/1 14/14/1 15/15/1 16/16/1
f 17/17/2 18/18/2 15/19/2 14/20/2
f 19/21/3 20/22/3 1/23/3 4/24/3
f 18/18/4 21/25/4 16/26/4 15/19/4
f 20/22/5 22/27/5 2/28/5 1/23/5
f 23/29/5 24/30/5 10/31/5 9/32/5
f 24/30/2 25/33/2 11/34/2 10/31/2
f 26/35/3 27/36/3 5/37/3 8/38/3
f 28/39/4 26/35/4 8/38/4 7/40/4
