# Blender v2.82 (sub 7) OBJ File: ''
# www.blender.org
mtllib StartingAreaWalls2.mtl
o Plane.001
v -3.926978 7.704788 106.090576
v -3.926978 7.704788 106.358551
v -6.977271 7.704788 106.358551
v -6.977271 7.704788 106.090576
v -3.926978 -0.000068 106.358551
v -3.926978 -0.000068 106.090576
v -6.977271 -0.000068 106.090576
v -6.977271 -0.000068 106.358551
v 3.926978 -0.000068 106.091263
v 3.926978 -0.000068 106.372948
v 7.059525 -0.000068 106.372948
v 7.059525 -0.000068 106.091263
v 3.926978 7.704788 106.372948
v 3.926978 7.704788 106.091263
v 7.059525 7.704788 106.091263
v 7.059525 7.704788 106.372948
v -3.926978 1.772512 106.090576
v -3.926978 1.750329 106.037613
v -3.926978 7.704788 106.037613
v -31.093737 7.704788 106.037613
v -31.093737 7.704865 -15.945502
v -31.093737 67.862076 -15.945460
v -31.093737 67.862015 106.037643
v -3.926978 7.704865 -15.945498
v 3.926978 7.704865 -15.945498
v 3.926978 67.862076 -15.945454
v -3.926978 67.862076 -15.945454
v 31.093737 7.704788 106.037613
v 3.926978 7.704788 106.037613
v 3.926978 67.862015 106.037643
v 31.093737 67.862015 106.037643
v 31.093737 7.704865 -15.945502
v 31.093737 67.862076 -15.945460
v -3.926978 7.704788 106.037613
v -3.926978 67.862015 106.037643
v 31.093737 0.000012 -15.945506
v 31.093737 -0.000068 106.037613
v -3.926978 -0.000068 106.037613
v -31.093737 -0.000068 106.037613
v 3.926978 0.000012 -15.945500
v 3.926978 -0.000068 106.037613
v -31.093737 0.000012 -15.945506
v -3.926978 0.000012 -15.945500
v -3.926978 1.847388 106.378571
v -3.926978 1.856810 106.358551
v -3.926978 7.704788 106.378571
v -3.926978 1.753396 106.578300
v -3.926978 1.275179 106.578300
v -3.926978 -0.000068 106.378571
v -3.926978 1.171765 106.358551
v -3.926978 1.181187 106.378571
v -3.926978 -0.000068 106.037613
v -3.926978 1.278246 106.037613
v -3.926978 1.256063 106.090576
v -3.926978 1.643355 106.637337
v -3.926978 1.643355 106.578300
v -6.977271 1.847388 106.378571
v -6.977271 1.856810 106.358551
v -3.926978 1.643355 106.090576
v -3.926978 1.643355 106.037613
v -3.926978 1.385226 106.037613
v -3.926978 1.385226 106.090576
v -3.926978 1.385226 106.578300
v -6.977271 1.275179 106.578300
v -6.977271 1.385226 106.578300
v -6.977271 1.643355 106.090576
v -6.977271 1.385226 106.090576
v -3.926978 1.385226 106.637337
v -6.977271 1.171765 106.358551
v -6.977271 1.181187 106.378571
v -6.977271 1.643355 106.637337
v -6.977271 1.643355 106.578300
v -6.977271 1.385226 106.637337
v -6.977271 1.753396 106.578300
v -6.977271 1.772512 106.090576
v -6.977271 1.256063 106.090576
v -6.977271 1.643355 106.378571
v -6.977271 1.643355 106.358551
v -6.977271 1.385226 106.358551
v -6.977271 1.385226 106.378571
v 3.926978 5.922218 106.582123
v 3.926978 6.023718 106.372948
v 3.926978 1.278246 106.372948
v 3.926978 1.643355 106.372948
v 3.926978 1.750329 106.372948
v 3.926978 1.385226 106.372948
v 3.926978 5.551055 106.091263
v 3.926978 5.343127 106.091263
v 7.059525 5.343127 106.091263
v 7.059525 5.551055 106.091263
v 7.059525 6.023718 106.372948
v 3.926978 5.551055 106.641144
v 3.926978 5.819657 106.641144
v 3.926978 5.444626 106.582123
v 3.926978 5.551055 106.582123
v 3.926978 5.819657 106.582123
v 7.059525 5.819657 106.582123
v 7.059525 5.819657 106.641144
v 3.926978 5.819657 106.091263
v 7.059525 5.819657 106.091263
v 7.059525 1.278246 106.372948
v 7.059525 5.551055 106.641144
v 7.059525 5.551055 106.582123
v 3.926978 6.023718 106.091263
v 7.059525 6.023718 106.091263
v 3.926978 1.643355 106.091263
v 3.926978 1.385226 106.091263
v 7.059525 1.385226 106.091263
v 7.059525 1.643355 106.091263
v 7.059525 1.750329 106.372948
v 7.059525 1.643355 106.372948
v 3.926978 6.023718 106.037613
v 3.926978 7.704788 106.037613
v 3.926978 -0.000068 106.037613
v 3.926978 1.278246 106.091263
v 3.926978 1.278246 106.037613
v 3.926978 1.643355 106.037613
v 3.926978 1.750329 106.091263
v 3.926978 1.750329 106.037613
v 3.926978 1.385226 106.037613
v 3.926978 5.551055 106.037613
v 3.926978 5.819657 106.037613
v 3.926978 5.343127 106.037613
v 3.926978 5.343127 106.372948
v 7.059525 5.444626 106.582123
v 7.059525 5.343127 106.372948
v 7.059525 1.278246 106.091263
v 7.059525 1.385226 106.372948
v 7.059525 5.551055 106.372948
v 7.059525 5.819657 106.372948
v 7.059525 1.750329 106.091263
v 7.059525 5.922218 106.582123
v -3.926978 7.704788 106.358551
v -3.926978 -0.000068 106.358551
v 3.926978 -0.000068 106.372948
v 3.926978 7.704788 106.372948
v -3.926978 1.847388 106.378571
v -3.926978 1.856810 106.358551
v -3.926978 1.753396 106.578300
v -3.926978 1.275179 106.578300
v -3.926978 1.171765 106.358551
v -3.926978 1.181187 106.378571
v -3.926978 1.643355 106.637337
v -3.926978 1.643355 106.578300
v -3.926978 1.385226 106.578300
v -3.926978 1.385226 106.637337
v 3.926978 5.922218 106.582123
v 3.926978 6.023718 106.372948
v 3.926978 1.278246 106.372948
v 3.926978 1.643355 106.372948
v 3.926978 1.750329 106.372948
v 3.926978 1.385226 106.372948
v 3.926978 5.551055 106.641144
v 3.926978 5.819657 106.641144
v 3.926978 5.444626 106.582123
v 3.926978 5.819657 106.582123
v 3.926978 5.343127 106.372948
v -3.863747 1.643355 106.637337
v -3.863747 1.643355 106.578300
v 3.871652 5.551055 106.641144
v 3.871652 5.444626 106.582123
v 3.871652 5.551055 106.582123
v -3.863747 7.704788 106.358551
v -3.863747 -0.000068 106.358551
v 3.871652 -0.000068 106.372948
v 3.871652 7.704788 106.372948
v -3.863747 1.847388 106.378571
v -3.863747 1.856810 106.358551
v -3.863747 1.753396 106.578300
v -3.863747 1.275179 106.578300
v -3.863747 1.171765 106.358551
v -3.863747 1.181187 106.378571
v -3.863747 1.643355 106.637337
v -3.863747 1.643355 106.578300
v -3.863747 1.385226 106.578300
v -3.863747 1.385226 106.637337
v 3.871652 5.922218 106.582123
v 3.871652 6.023718 106.372948
v 3.871652 1.278246 106.372948
v 3.871652 1.643355 106.372948
v 3.871652 1.750329 106.372948
v 3.871652 1.385226 106.372948
v 3.871652 5.551055 106.641144
v 3.871652 5.819657 106.641144
v 3.871652 5.444626 106.582123
v 3.871652 5.819657 106.582123
v 3.871652 5.343127 106.372948
v -3.863747 1.643355 106.721695
v -3.863747 1.655679 106.662659
v 3.871652 5.551055 106.725502
v 3.871652 5.444626 106.666481
v 3.871652 5.542629 106.666481
v -3.863747 7.704788 106.442909
v -3.863747 -0.000068 106.442909
v 3.871652 -0.000068 106.457306
v 3.871652 7.704788 106.457306
v -3.863747 1.847388 106.462929
v -3.863747 1.856810 106.442909
v -3.863747 1.753396 106.662659
v -3.863747 1.275179 106.662659
v -3.863747 1.171765 106.442909
v -3.863747 1.181186 106.462929
v -3.863747 1.643355 106.721695
v -3.863747 1.643355 106.662659
v -3.863747 1.372901 106.662659
v -3.863747 1.385226 106.721695
v 3.871652 5.922218 106.666481
v 3.871652 6.023718 106.457306
v 3.871652 1.278246 106.457306
v 3.871652 1.643355 106.457306
v 3.871652 1.750329 106.457306
v 3.871652 1.385226 106.457306
v 3.871652 5.551055 106.725502
v 3.871652 5.819657 106.725502
v 3.871652 5.444626 106.666481
v 3.871652 5.828083 106.666481
v 3.871652 5.343127 106.457306
v -3.941117 1.643355 106.721695
v -3.941117 1.655679 106.662659
v 3.939350 5.551055 106.725502
v 3.939350 5.444626 106.666481
v 3.939350 5.542629 106.666481
v -3.941117 7.704788 106.442909
v -3.941117 -0.000068 106.442909
v 3.939350 -0.000068 106.457306
v 3.939350 7.704788 106.457306
v -3.941117 1.847388 106.462929
v -3.941117 1.856810 106.442909
v -3.941117 1.753396 106.662659
v -3.941117 1.275179 106.662659
v -3.941117 1.171765 106.442909
v -3.941117 1.181186 106.462929
v -3.941117 1.643355 106.721695
v -3.941117 1.643355 106.662659
v -3.941117 1.372901 106.662659
v -3.941117 1.385226 106.721695
v 3.939350 5.922218 106.666481
v 3.939350 6.023718 106.457306
v 3.939350 1.278246 106.457306
v 3.939350 1.643355 106.457306
v 3.939350 1.750329 106.457306
v 3.939350 1.385226 106.457306
v 3.939350 5.551055 106.725502
v 3.939350 5.819657 106.725502
v 3.939350 5.444626 106.666481
v 3.939350 5.828083 106.666481
v 3.939350 5.343127 106.457306
vt 0.901649 0.930690
vt 0.902081 0.930554
vt 0.901921 0.934579
vt 0.901656 0.934502
vt 0.902278 0.948631
vt 0.901549 0.948781
vt 0.901275 0.943216
vt 0.901485 0.943232
vt 0.951004 0.768209
vt 0.947792 0.768675
vt 0.945775 0.747070
vt 0.946500 0.747065
vt 0.929902 0.685129
vt 0.933103 0.683815
vt 0.940638 0.706500
vt 0.939819 0.706686
vt 0.895183 0.945788
vt 0.894960 0.945858
vt 0.901383 0.930579
vt 0.352386 0.408838
vt 0.688033 0.408838
vt 0.688033 0.574365
vt 0.352386 0.574365
vt 0.252909 0.408838
vt 0.274520 0.408838
vt 0.274520 0.574365
vt 0.252909 0.574365
vt 0.178158 0.408838
vt 0.178158 0.574365
vt 0.003665 0.408838
vt 0.078417 0.408838
vt 0.078417 0.574365
vt 0.003665 0.574365
vt 0.349272 0.408838
vt 0.349272 0.574365
vt 0.100028 0.408838
vt 0.174779 0.408838
vt 0.174779 0.574365
vt 0.100028 0.574365
vt 0.164976 0.204593
vt 0.500622 0.204593
vt 0.500622 0.370120
vt 0.164976 0.370120
vt 0.164976 0.183392
vt 0.500622 0.183392
vt 0.100028 0.387637
vt 0.174779 0.387637
vt 0.274520 0.387637
vt 0.349272 0.387637
vt 0.003665 0.387637
vt 0.078417 0.387637
vt 0.178158 0.387637
vt 0.252909 0.387637
vt 0.352386 0.387637
vt 0.688033 0.387637
vt 0.970159 0.682831
vt 0.970159 0.704597
vt 0.969782 0.704601
vt 0.969780 0.683009
vt 0.969949 0.704630
vt 0.969949 0.714404
vt 0.969780 0.714326
vt 0.969780 0.704630
vt 0.901466 0.949010
vt 0.895995 0.946992
vt 0.896134 0.946849
vt 0.905457 0.942003
vt 0.905702 0.941973
vt 0.902231 0.940868
vt 0.902273 0.940735
vt 0.895309 0.946116
vt 0.895165 0.946212
vt 0.895714 0.946805
vt 0.895817 0.946682
vt 0.906209 0.945005
vt 0.906154 0.945379
vt 0.902024 0.942012
vt 0.902094 0.941878
vt 0.901430 0.941139
vt 0.901353 0.941743
vt 0.905663 0.945980
vt 0.905689 0.946044
vt 0.901721 0.942187
vt 0.901770 0.942141
vt 0.906211 0.944015
vt 0.906317 0.944134
vt 0.902323 0.941602
vt 0.902315 0.941474
vt 0.906206 0.944746
vt 0.902218 0.941851
vt 0.906382 0.943308
vt 0.902383 0.941310
vt 0.901522 0.940795
vt 0.901367 0.941994
vt 0.901990 0.941286
vt 0.901971 0.941255
vt 0.901799 0.941779
vt 0.901823 0.941781
vt 0.967809 0.695799
vt 0.968973 0.698090
vt 0.943396 0.717231
vt 0.942966 0.715279
vt 0.918820 0.704640
vt 0.940328 0.712313
vt 0.916402 0.708055
vt 0.916706 0.707461
vt 0.939418 0.713746
vt 0.938979 0.714033
vt 0.965746 0.693241
vt 0.942361 0.713173
vt 0.930115 0.760381
vt 0.945645 0.743587
vt 0.915739 0.711556
vt 0.915730 0.711114
vt 0.938938 0.715210
vt 0.939203 0.715611
vt 0.963807 0.691646
vt 0.941747 0.711925
vt 0.968647 0.754478
vt 0.967208 0.756646
vt 0.946990 0.742895
vt 0.947025 0.741126
vt 0.927660 0.758050
vt 0.927178 0.757060
vt 0.944744 0.740616
vt 0.945019 0.741386
vt 0.964163 0.690891
vt 0.933360 0.682831
vt 0.951465 0.768858
vt 0.966525 0.757405
vt 0.966930 0.757865
vt 0.969159 0.754763
vt 0.969044 0.753509
vt 0.969750 0.753632
vt 0.967659 0.756984
vt 0.968390 0.695417
vt 0.966245 0.692754
vt 0.969750 0.697920
vt 0.916773 0.715032
vt 0.915413 0.712490
vt 0.939166 0.716311
vt 0.940821 0.718039
vt 0.946821 0.743522
vt 0.929194 0.759771
vt 0.945403 0.743033
vt 0.940796 0.715688
vt 0.940613 0.713648
vt 0.947099 0.740241
vt 0.939470 0.713207
vt 0.917017 0.706644
vt 0.904994 0.946383
vt 0.905562 0.946119
vt 0.905003 0.946390
vt 0.906778 0.943563
vt 0.906040 0.944495
vt 0.906234 0.945344
vt 0.906279 0.944095
vt 0.906251 0.944733
vt 0.903598 0.940402
vt 0.903628 0.940382
vt 0.905429 0.941420
vt 0.906229 0.944984
vt 0.894797 0.683208
vt 0.899283 0.683092
vt 0.901122 0.966075
vt 0.901466 0.966140
vt 0.918777 0.704611
vt 0.929556 0.684941
vt 0.927160 0.757066
vt 0.916723 0.715051
vt 0.917002 0.706634
vt 0.930105 0.760399
vt 0.929178 0.759789
vt 0.916694 0.707456
vt 0.947642 0.768982
vt 0.915677 0.711102
vt 0.916389 0.708050
vt 0.927641 0.758064
vt 0.915368 0.712513
vt 0.906339 0.943901
vt 0.906445 0.944020
vt 0.906445 0.939019
vt 0.907085 0.940122
vt 0.928812 0.760246
vt 0.927122 0.758362
vt 0.906650 0.945361
vt 0.905963 0.946582
vt 0.914891 0.712185
vt 0.915361 0.711547
vt 0.904748 0.682996
vt 0.915158 0.711010
vt 0.915703 0.707661
vt 0.908138 0.944108
vt 0.905723 0.946869
vt 0.902534 0.966333
vt 0.916302 0.707264
vt 0.918270 0.704250
vt 0.928896 0.684590
vt 0.915240 0.711122
vt 0.916106 0.715306
vt 0.914587 0.712903
vt 0.916370 0.706240
vt 0.906576 0.945412
vt 0.947248 0.769742
vt 0.929783 0.760964
vt 0.906431 0.944964
vt 0.926495 0.757313
vt 0.906542 0.944757
vt 0.906374 0.944052
vt 0.917437 0.704408
vt 0.927660 0.683952
vt 0.906754 0.946255
vt 0.906696 0.946312
vt 0.915218 0.714935
vt 0.913822 0.712356
vt 0.915482 0.706483
vt 0.908678 0.945625
vt 0.907183 0.946576
vt 0.915235 0.707780
vt 0.906515 0.944049
vt 0.906596 0.944191
vt 0.946637 0.770898
vt 0.929212 0.761851
vt 0.906695 0.944670
vt 0.906913 0.945041
vt 0.925664 0.757717
vt 0.914410 0.711729
vt 0.915049 0.710833
vt 0.926286 0.758852
vt 0.906736 0.944492
vt 0.914977 0.710106
vt 0.928171 0.761002
vt 0.906569 0.943975
vt 0.909364 0.941529
vt 0.909421 0.941612
vt 0.908567 0.682922
vt 0.914081 0.710825
vt 0.914684 0.708241
vt 0.904267 0.966618
vt 0.907293 0.944962
vt 0.907500 0.946377
vt 0.913065 0.682831
vt 0.913065 0.940520
vt 0.913384 0.710656
vt 0.914053 0.707889
vt 0.911916 0.941706
vt 0.909976 0.946412
vt 0.907743 0.946807
vt 0.905391 0.966816
vt 0.914394 0.707336
vt 0.916630 0.703857
vt 0.926962 0.683599
vt 0.914434 0.715247
vt 0.913094 0.712746
vt 0.914784 0.706158
vt 0.908192 0.947963
vt 0.906697 0.943945
vt 0.906777 0.944086
vt 0.946149 0.771823
vt 0.928675 0.762612
vt 0.907028 0.944575
vt 0.924886 0.758061
vt 0.913832 0.711399
vt 0.914310 0.710563
vt 0.925594 0.759301
vt 0.906920 0.944414
vt 0.914401 0.710054
vt 0.927590 0.761618
vt 0.906719 0.943914
vn 0.0000 -1.0000 0.0000
vn 0.0000 1.0000 0.0000
vn 1.0000 0.0000 0.0000
vn -0.0000 -0.0000 1.0000
vn 0.0000 0.0000 -1.0000
vn -1.0000 -0.0000 0.0000
vn 0.0000 -0.9048 -0.4258
vn 0.0000 0.9048 -0.4258
vn 0.0000 0.8997 -0.4366
vn 0.0000 -0.8997 -0.4366
vn 0.0000 0.0000 0.0000
vn 0.0000 -0.5358 -0.8443
vn -0.0000 0.5358 -0.8443
vn 0.0000 0.7071 -0.7071
vn 0.0000 -0.7071 -0.7071
vn 0.0000 -0.5308 -0.8475
vn 0.0000 0.5308 -0.8475
vn 0.0000 -0.9048 0.4258
vn 0.0000 0.9048 0.4258
vn 0.0000 0.9900 0.1413
vn 0.0000 0.5308 0.8475
vn 0.0000 -0.5308 0.8475
vn 0.0000 -0.8997 0.4366
vn 0.0000 0.9789 0.2044
vn 0.0000 -0.9789 0.2044
vn 0.0000 -0.9900 0.1413
usemtl None.005
s off
f 1/1/1 2/2/1 3/3/1 4/4/1
f 5/5/2 6/6/2 7/7/2 8/8/2
f 9/9/2 10/10/2 11/11/2 12/12/2
f 13/13/1 14/14/1 15/15/1 16/16/1
s 1
f 17/17/3 18/18/3 19/19/3 1/1/3
f 20/20/3 21/21/3 22/22/3 23/23/3
f 24/24/4 25/25/4 26/26/4 27/27/4
f 21/28/4 24/24/4 27/27/4 22/29/4
f 28/30/5 29/31/5 30/32/5 31/33/5
f 25/25/4 32/34/4 33/35/4 26/26/4
f 34/36/5 20/37/5 23/38/5 35/39/5
f 32/40/6 28/41/6 31/42/6 33/43/6
f 36/44/6 37/45/6 28/41/6 32/40/6
f 38/46/5 39/47/5 20/37/5 34/36/5
f 40/48/4 36/49/4 32/34/4 25/25/4
f 37/50/5 41/51/5 29/31/5 28/30/5
f 42/52/4 43/53/4 24/24/4 21/28/4
f 43/53/4 40/48/4 25/25/4 24/24/4
f 39/54/3 42/55/3 21/21/3 20/20/3
f 35/39/5 30/32/5 29/31/5 34/36/5
f 44/56/6 46/57/6 2/58/6 45/59/6
f 49/60/6 51/61/6 50/62/6 5/63/6
f 6/6/3 52/64/3 53/65/3 54/66/3
f 45/67/7 44/68/7 57/69/7 58/70/7
f 59/71/3 60/72/3 18/18/3 17/17/3
f 54/66/3 53/65/3 61/73/3 62/74/3
f 62/74/3 61/73/3 60/72/3 59/71/3
f 63/75/5 48/76/5 64/77/5 65/78/5
f 62/74/4 59/71/4 66/79/4 67/80/4
f 51/81/8 50/82/8 69/83/8 70/84/8
f 56/85/1 55/86/1 71/87/1 72/88/1
f 50/82/5 5/5/5 8/8/5 69/83/5
f 68/89/2 63/75/2 65/78/2 73/90/2
f 47/91/5 56/85/5 72/88/5 74/92/5
f 17/17/4 1/1/4 4/4/4 75/93/4
f 55/86/5 68/89/5 73/90/5 71/87/5
f 6/6/4 54/66/4 76/94/4 7/7/4
f 48/76/8 51/81/8 70/84/8 64/77/8
f 77/95/3 78/96/3 58/70/3 57/69/3
f 70/84/3 69/83/3 79/97/3 80/98/3
f 80/98/3 79/97/3 78/96/3 77/95/3
f 73/90/3 65/78/3 72/88/3 71/87/3
f 79/97/3 67/80/3 66/79/3 78/96/3
f 69/83/3 76/94/3 67/80/3 79/97/3
f 78/96/3 66/79/3 75/93/3 58/70/3
f 8/8/3 7/7/3 76/94/3 69/83/3
f 58/70/3 75/93/3 4/4/3 3/3/3
f 65/78/3 80/98/3 77/95/3 72/88/3
f 64/77/3 70/84/3 80/98/3 65/78/3
f 72/88/3 77/95/3 57/69/3 74/92/3
f 44/68/7 47/91/7 74/92/7 57/69/7
f 54/66/4 62/74/4 67/80/4 76/94/4
f 2/2/5 45/67/5 58/70/5 3/3/5
f 59/71/4 17/17/4 75/93/4 66/79/4
f 87/99/4 88/100/4 89/101/4 90/102/4
f 82/103/5 13/13/5 16/16/5 91/104/5
f 93/105/1 96/106/1 97/107/1 98/108/1
f 99/109/4 87/99/4 90/102/4 100/110/4
f 10/10/5 83/111/5 101/112/5 11/11/5
f 95/113/2 92/114/2 102/115/2 103/116/2
f 104/117/4 99/109/4 100/110/4 105/118/4
f 106/119/4 107/120/4 108/121/4 109/122/4
f 84/123/5 85/124/5 110/125/5 111/126/5
f 112/127/6 104/117/6 14/14/6 113/128/6
f 114/129/6 9/9/6 115/130/6 116/131/6
f 117/132/6 106/119/6 118/133/6 119/134/6
f 116/131/6 115/130/6 107/120/6 120/135/6
f 120/135/6 107/120/6 106/119/6 117/132/6
f 121/136/6 87/99/6 99/109/6 122/137/6
f 123/138/6 88/100/6 87/99/6 121/136/6
f 122/137/6 99/109/6 104/117/6 112/127/6
f 124/139/9 94/140/9 125/141/9 126/142/9
f 107/120/4 115/130/4 127/143/4 108/121/4
f 119/134/6 118/133/6 88/100/6 123/138/6
f 83/111/5 86/144/5 128/145/5 101/112/5
f 129/146/6 103/116/6 97/107/6 130/147/6
f 103/116/6 102/115/6 98/108/6 97/107/6
f 126/142/6 125/141/6 103/116/6 129/146/6
f 89/101/6 126/142/6 129/146/6 90/102/6
f 90/102/6 129/146/6 130/147/6 100/110/6
f 108/121/6 128/145/6 111/126/6 109/122/6
f 127/143/6 101/112/6 128/145/6 108/121/6
f 109/122/6 111/126/6 110/125/6 131/148/6
f 12/12/6 11/11/6 101/112/6 127/143/6
f 105/118/6 91/104/6 16/16/6 15/15/6
f 100/110/6 130/147/6 91/104/6 105/118/6
f 130/147/6 97/107/6 132/149/6 91/104/6
f 131/148/6 110/125/6 126/142/6 89/101/6
f 85/124/5 124/139/5 126/142/5 110/125/5
f 14/14/4 104/117/4 105/118/4 15/15/4
f 81/150/10 82/103/10 91/104/10 132/149/10
f 88/100/4 118/133/4 131/148/4 89/101/4
f 115/130/4 9/9/4 12/12/4 127/143/4
f 86/144/5 84/123/5 111/126/5 128/145/5
f 118/133/4 106/119/4 109/122/4 131/148/4
f 92/114/5 93/105/5 98/108/5 102/115/5
f 96/106/5 81/150/5 132/149/5 97/107/5
f 94/140/5 95/113/5 103/116/5 125/141/5
f 50/151/4 51/81/4 142/152/4 141/153/4
f 56/85/4 47/91/4 139/154/4 144/155/4
f 48/76/4 140/156/4 142/152/4 51/81/4
f 68/89/11 55/86/4 143/157/4 146/158/11
f 44/68/4 45/159/4 138/160/4 137/161/4
f 47/91/4 44/68/4 137/161/4 139/154/4
f 63/75/11 68/89/11 146/158/11 145/162/11
f 63/75/11 145/162/11 140/156/4 48/76/4
f 45/159/4 2/163/4 133/164/4 138/160/4
f 5/165/4 50/151/4 141/153/4 134/166/4
usemtl Material.001
f 13/13/4 82/103/4 148/167/4 136/168/4
f 124/139/4 85/124/4 151/169/4 157/170/4
f 82/103/4 81/150/4 147/171/4 148/167/4
f 86/144/4 83/111/4 149/172/4 152/173/4
f 81/150/4 96/106/11 156/174/11 147/171/4
f 83/111/4 10/10/4 135/175/4 149/172/4
f 93/105/11 92/114/4 153/176/4 154/177/11
f 84/123/4 86/144/4 152/173/4 150/178/4
f 124/139/4 157/170/4 155/179/4 94/140/4
f 93/105/11 154/177/11 156/174/11 96/106/11
f 85/124/4 84/123/4 150/178/4 151/169/4
f 55/86/1 56/85/1 159/180/1 158/181/1
f 137/161/7 138/160/12 168/182/12 167/183/7
f 150/178/5 152/173/5 182/184/5 180/185/5
f 140/156/13 170/186/13 172/187/8 142/152/8
f 95/113/14 94/140/5 161/188/5 162/189/14
f 138/160/12 133/164/5 163/190/5 168/182/12
f 154/177/15 153/176/5 183/191/5 184/192/15
f 139/154/12 137/161/7 167/183/7 169/193/12
f 134/166/5 141/153/13 171/194/13 164/195/5
f 154/177/15 184/192/15 186/196/15 156/174/15
f 136/168/5 148/167/16 178/197/16 166/198/5
f 92/114/2 95/113/14 162/189/14 160/199/2
f 141/153/13 142/152/8 172/187/8 171/194/13
f 157/170/17 187/200/17 185/201/9 155/179/9
f 148/167/16 147/171/16 177/202/16 178/197/16
f 144/155/5 139/154/12 169/193/12 174/203/5
f 147/171/16 156/174/15 186/196/15 177/202/16
f 149/172/5 135/175/5 165/204/5 179/205/5
f 145/162/14 175/206/14 170/186/13 140/156/13
f 157/170/17 151/169/5 181/207/5 187/200/17
f 151/169/5 150/178/5 180/185/5 181/207/5
f 145/162/14 146/158/14 176/208/14 175/206/14
f 152/173/5 149/172/5 179/205/5 182/184/5
f 146/158/14 143/157/5 173/209/5 176/208/14
f 166/198/6 178/197/6 208/210/6 196/211/6
f 171/194/3 172/187/3 202/212/3 201/213/3
f 187/200/6 217/214/6 215/215/6 185/201/6
f 178/197/6 177/202/6 207/216/6 208/210/6
f 174/203/3 169/193/3 199/217/3 204/218/3
f 177/202/6 186/196/6 216/219/6 207/216/6
f 158/181/3 159/180/3 189/220/3 188/221/3
f 179/205/6 165/204/6 195/222/6 209/223/6
f 175/206/3 205/224/3 200/225/3 170/186/3
f 187/200/6 181/207/6 211/226/6 217/214/6
f 162/189/6 161/188/6 191/227/6 192/228/6
f 181/207/6 180/185/6 210/229/6 211/226/6
f 175/206/3 176/208/3 206/230/3 205/224/3
f 160/199/6 162/189/6 192/228/6 190/231/6
f 182/184/6 179/205/6 209/223/6 212/232/6
f 176/208/3 173/209/3 203/233/3 206/230/3
f 167/183/3 168/182/3 198/234/3 197/235/3
f 180/185/6 182/184/6 212/232/6 210/229/6
f 170/186/3 200/225/3 202/212/3 172/187/3
f 168/182/3 163/190/3 193/236/3 198/234/3
f 184/192/6 183/191/6 213/237/6 214/238/6
f 169/193/3 167/183/3 197/235/3 199/217/3
f 164/195/3 171/194/3 201/213/3 194/239/3
f 184/192/6 214/238/6 216/219/6 186/196/6
f 200/225/18 230/240/18 232/241/18 202/212/18
f 198/234/4 193/236/4 223/242/4 228/243/4
f 214/238/4 213/237/4 243/244/4 244/245/4
f 199/217/19 197/235/19 227/246/19 229/247/19
f 194/239/4 201/213/4 231/248/4 224/249/4
f 214/238/20 244/245/20 246/250/20 216/219/20
f 196/211/4 208/210/21 238/251/21 226/252/4
f 201/213/18 202/212/18 232/241/18 231/248/18
f 217/214/22 247/253/22 245/254/23 215/215/23
f 208/210/21 207/216/21 237/255/21 238/251/21
f 204/218/4 199/217/4 229/247/4 234/256/4
f 207/216/21 216/219/4 246/250/4 237/255/21
f 188/221/24 189/220/24 219/257/24 218/258/24
f 209/223/4 195/222/4 225/259/4 239/260/4
f 205/224/4 235/261/4 230/240/4 200/225/4
f 217/214/22 211/226/4 241/262/4 247/253/22
f 192/228/4 191/227/4 221/263/4 222/264/4
f 211/226/4 210/229/4 240/265/4 241/262/4
f 205/224/25 206/230/25 236/266/25 235/261/25
f 190/231/26 192/228/26 222/264/26 220/267/26
f 212/232/4 209/223/4 239/260/4 242/268/4
f 206/230/4 203/233/4 233/269/4 236/266/4
f 197/235/19 198/234/19 228/243/19 227/246/19
f 210/229/4 212/232/4 242/268/4 240/265/4
