# Blender v2.82 (sub 7) OBJ File: ''
# www.blender.org
mtllib StartingAreaLights.mtl
o Cube.002
v 0.195668 -0.520790 -0.983691
v -0.000001 -0.520790 -1.002963
v 0.383817 -0.520790 -0.926617
v 0.557216 -0.520790 -0.833933
v 0.709202 -0.520790 -0.709202
v 0.833933 -0.520790 -0.557216
v 0.926617 -0.520790 -0.383817
v 0.983691 -0.520790 -0.195668
v 1.002963 -0.520790 -0.000000
v 0.983691 -0.520790 0.195669
v 0.926617 -0.520790 0.383818
v 0.833933 -0.520790 0.557217
v 0.709202 -0.520790 0.709202
v 0.557216 -0.520790 0.833934
v 0.383817 -0.520790 0.926618
v 0.195668 -0.520790 0.983692
v 0.000000 -0.520790 1.002964
v -0.195669 -0.520790 0.983692
v -0.383818 -0.520790 0.926617
v -0.557217 -0.520790 0.833933
v -0.709203 -0.520790 0.709202
v -0.833934 -0.520790 0.557216
v -0.926618 -0.520790 0.383817
v -0.983692 -0.520790 0.195668
v -1.002963 -0.520790 -0.000001
v -0.983692 -0.520790 -0.195669
v -0.926617 -0.520790 -0.383818
v -0.833933 -0.520790 -0.557217
v -0.709202 -0.520790 -0.709203
v -0.557216 -0.520790 -0.833934
v -0.383816 -0.520790 -0.926617
v -0.195667 -0.520790 -0.983692
vt 0.000000 0.000000
vt 0.000000 0.000000
vt 0.000000 0.000000
vt 0.000000 0.000000
vt 0.000000 0.000000
vt 0.000000 0.000000
vt 0.000000 0.000000
vt 0.000000 0.000000
vt 0.000000 0.000000
vt 0.000000 0.000000
vt 0.000000 0.000000
vt 0.000000 0.000000
vt 0.000000 0.000000
vt 0.000000 0.000000
vt 0.000000 0.000000
vt 0.000000 0.000000
vt 0.000000 0.000000
vt 0.000000 0.000000
vt 0.000000 0.000000
vt 0.000000 0.000000
vt 0.000000 0.000000
vt 0.000000 0.000000
vt 0.000000 0.000000
vt 0.000000 0.000000
vt 0.000000 0.000000
vt 0.000000 0.000000
vt 0.000000 0.000000
vt 0.000000 0.000000
vt 0.000000 0.000000
vt 0.000000 0.000000
vt 0.000000 0.000000
vt 0.000000 0.000000
vn 0.0000 -1.0000 -0.0000
usemtl Material.003
s off
f 3/1/1 4/2/1 5/3/1 6/4/1 7/5/1 8/6/1 9/7/1 10/8/1 11/9/1 12/10/1 13/11/1 14/12/1 15/13/1 16/14/1 17/15/1 18/16/1 19/17/1 20/18/1 21/19/1 22/20/1 23/21/1 24/22/1 25/23/1 26/24/1 27/25/1 28/26/1 29/27/1 30/28/1 31/29/1 32/30/1 2/31/1 1/32/1
